<svg xmlns="http://www.w3.org/2000/svg" viewBox="0 0 423.2 92.6" enable-background="new 0 0 423.2 92.6"><path fill="#669900" d="M15.6 31.5c1.6-.6 3.4-1.1 5.3-1.6s4-.7 6.4-.7c3.4 0 6.6.5 9.5 1.6 2.9 1 5.4 2.6 7.6 4.7 2.1 2.1 3.8 4.7 5 7.8 1.2 3.1 1.8 6.7 1.8 10.8v35.3h-15.7v-33.1c0-4.1-.8-7.3-2.3-9.6-1.5-2.3-3.8-3.5-7-3.5-2.3 0-4.2.3-5.8.8-1.5.6-3.2 1.4-4.9 2.4v42.9h-15.5v-82.8l15.6-6.5v31.5zm96.1 40.8c-1.6 3.8-3.8 7-6.5 9.7-2.8 2.7-6.1 4.9-9.9 6.4-3.8 1.6-8 2.3-12.4 2.3s-8.5-.8-12.2-2.3c-3.8-1.6-7-3.7-9.8-6.4-2.8-2.7-5-6-6.6-9.7-1.6-3.8-2.4-7.8-2.4-12.1 0-4.4.8-8.5 2.4-12.2 1.6-3.7 3.8-7 6.6-9.7 2.8-2.8 6.1-4.9 9.8-6.5 3.8-1.6 7.8-2.3 12.2-2.3 4.4 0 8.5.8 12.4 2.3 3.8 1.6 7.1 3.7 9.9 6.5s4.9 6 6.5 9.7c1.6 3.7 2.4 7.8 2.4 12.2 0 4.3-.8 8.4-2.4 12.1zm-15-18.7c-.8-2-1.8-3.8-3.2-5.3-1.4-1.5-2.9-2.7-4.7-3.5-1.8-.9-3.8-1.3-5.9-1.3-2.1 0-4 .4-5.9 1.3-1.8.8-3.4 2-4.8 3.5s-2.4 3.3-3.2 5.3c-.8 2-1.1 4.3-1.1 6.7s.4 4.6 1.1 6.7c.8 2 1.8 3.8 3.2 5.2 1.4 1.4 3 2.6 4.8 3.4 1.8.8 3.8 1.3 5.9 1.3 2.2 0 4.1-.4 5.9-1.3 1.8-.8 3.4-2 4.7-3.4 1.4-1.4 2.4-3.2 3.2-5.2.8-2 1.1-4.3 1.1-6.7s-.3-4.7-1.1-6.7zm75.1 38.9l-9-5.2-11.2-28.4-13.3 33.7-9.4-5-23.1-54.9 13.8-6.5 14.8 36 11.9-30.5 8.9-6.8 13.8 37.2 15.2-36 13.7 6.5-26.1 59.9zm69.2-44.4c-2.3-1-4.3-1.7-6-2.3-1.7-.6-3.2-1-4.5-1.4s-2.5-.6-3.5-.7c-1-.1-2-.2-2.9-.2-4.6 0-8.2 1.5-11 4.6-2.8 3.1-4.2 7.1-4.2 12.2 0 5 1.4 9 4.3 11.9 2.8 2.9 6.7 4.3 11.6 4.3 2.1 0 4.4-.3 6.9-1 2.5-.6 6-1.8 10.4-3.5l6.2 12.6c-2.1 1-4.2 1.8-6.4 2.5s-4.4 1.3-6.5 1.9c-2.1.5-4.1.9-6 1.1-1.9.2-3.5.4-5 .4-4.6 0-8.9-.7-12.8-2.2-3.9-1.5-7.2-3.5-10-6.2s-4.9-5.8-6.5-9.5c-1.6-3.7-2.3-7.7-2.3-12.1 0-4.6.8-8.9 2.3-12.7 1.6-3.8 3.7-7.1 6.5-9.9s6.1-4.9 9.9-6.4c3.8-1.5 8-2.3 12.5-2.3 2.8 0 6.3.6 10.5 1.7 4.2 1.2 8.4 2.7 12.5 4.5 0 .1-6 12.7-6 12.7zm22.8-16.6c1.6-.6 3.4-1.1 5.3-1.6s4-.7 6.4-.7c3.4 0 6.6.5 9.5 1.6 2.9 1 5.4 2.6 7.6 4.7 2.1 2.1 3.8 4.7 5 7.8 1.2 3.1 1.8 6.7 1.8 10.8v35.3h-15.6v-33.1c0-4.1-.8-7.3-2.3-9.6-1.5-2.3-3.8-3.5-7-3.5-2.3 0-4.2.3-5.8.8-1.5.6-3.2 1.4-4.9 2.4v42.9h-15.6v-82.8l15.6-6.5v31.5zm96 40.8c-1.6 3.8-3.8 7-6.5 9.7-2.8 2.7-6.1 4.9-9.9 6.4-3.8 1.6-8 2.3-12.4 2.3s-8.5-.8-12.2-2.3c-3.8-1.6-7-3.7-9.8-6.4-2.8-2.7-5-6-6.6-9.7-1.6-3.8-2.4-7.8-2.4-12.1 0-4.4.8-8.5 2.4-12.2 1.6-3.7 3.8-7 6.6-9.7 2.8-2.8 6.1-4.9 9.8-6.5 3.8-1.6 7.8-2.3 12.2-2.3 4.4 0 8.5.8 12.4 2.3 3.8 1.6 7.1 3.7 9.9 6.5s4.9 6 6.5 9.7c1.6 3.7 2.4 7.8 2.4 12.2 0 4.3-.8 8.4-2.4 12.1zm-14.9-18.7c-.8-2-1.8-3.8-3.2-5.3-1.4-1.5-2.9-2.7-4.7-3.5-1.8-.9-3.8-1.3-5.9-1.3-2.1 0-4 .4-5.9 1.3-1.8.8-3.4 2-4.8 3.5s-2.4 3.3-3.2 5.3c-.8 2-1.1 4.3-1.1 6.7s.4 4.6 1.1 6.7c.8 2 1.8 3.8 3.2 5.2 1.4 1.4 3 2.6 4.8 3.4 1.8.8 3.8 1.3 5.9 1.3 2.2 0 4.1-.4 5.9-1.3 1.8-.8 3.4-2 4.7-3.4 1.4-1.4 2.4-3.2 3.2-5.2.8-2 1.1-4.3 1.1-6.7s-.3-4.7-1.1-6.7zm75.9 18.7c-1.6 3.8-3.8 7-6.5 9.7-2.8 2.7-6.1 4.9-9.9 6.4-3.8 1.6-8 2.3-12.4 2.3s-8.5-.8-12.2-2.3c-3.8-1.6-7-3.7-9.8-6.4-2.8-2.7-5-6-6.6-9.7-1.6-3.8-2.4-7.8-2.4-12.1 0-4.4.8-8.5 2.4-12.2 1.6-3.7 3.8-7 6.6-9.7 2.8-2.8 6.1-4.9 9.8-6.5 3.8-1.6 7.8-2.3 12.2-2.3 4.4 0 8.5.8 12.4 2.3 3.8 1.6 7.1 3.7 9.9 6.5s4.9 6 6.5 9.7c1.6 3.7 2.4 7.8 2.4 12.2 0 4.3-.8 8.4-2.4 12.1zm-15-18.7c-.8-2-1.8-3.8-3.2-5.3-1.4-1.5-2.9-2.7-4.7-3.5-1.8-.9-3.8-1.3-5.9-1.3-2.1 0-4 .4-5.9 1.3-1.8.8-3.4 2-4.8 3.5s-2.4 3.3-3.2 5.3c-.8 2-1.1 4.3-1.1 6.7s.4 4.6 1.1 6.7c.8 2 1.8 3.8 3.2 5.2 1.4 1.4 3 2.6 4.8 3.4 1.8.8 3.8 1.3 5.9 1.3 2.2 0 4.1-.4 5.9-1.3 1.8-.8 3.4-2 4.7-3.4 1.4-1.4 2.4-3.2 3.2-5.2.8-2 1.1-4.3 1.1-6.7s-.3-4.7-1.1-6.7z"/></svg>
